<svg xmlns="http://www.w3.org/2000/svg" xmlns:xlink="http://www.w3.org/1999/xlink" viewBox="0,0,256,256" width="64px" height="64px" fill-rule="nonzero"><g fill="#865ddb" fill-rule="nonzero" stroke="none" stroke-width="1" stroke-linecap="butt" stroke-linejoin="miter" stroke-miterlimit="10" stroke-dasharray="" stroke-dashoffset="0" font-family="none" font-weight="none" font-size="none" text-anchor="none" style="mix-blend-mode: normal"><g transform="scale(2,2)"><path d="M85.52,45.58l-43,24.85c-1.61107,0.92072 -3.58893,0.92072 -5.2,0l-13.77,-7.93c-1.58863,-0.94091 -2.55919,-2.65366 -2.55,-4.5v-15.86c0.00119,-1.85659 0.99214,-3.5717 2.6,-4.5l13.73,-7.93c1.61107,-0.92072 3.58893,-0.92072 5.2,0l13.73,7.93c1.60786,0.9283 2.59881,2.64341 2.6,4.5v7.61c0.00055,0.46211 0.24637,0.8892 0.64569,1.12179c0.39931,0.23259 0.89208,0.23572 1.29431,0.00821l7.15,-4.13c0.80159,-0.46518 1.29353,-1.32322 1.29,-2.25v-8.36c-0.00117,-1.85398 -0.9875,-3.56767 -2.59,-4.5l-24.17,-13.92c-1.60833,-0.93096 -3.59167,-0.93096 -5.2,0l-24.12,13.92c-1.60786,0.9283 -2.59881,2.64341 -2.6,4.5v27.86c0.00119,1.85659 0.99214,3.5717 2.6,4.5l24.12,13.92c1.60833,0.93096 3.59167,0.93096 5.2,0l43,-24.85c1.61107,-0.92072 3.58893,-0.92072 5.2,0l13.73,7.93c1.60786,0.9283 2.59881,2.64341 2.6,4.5v15.86c-0.00119,1.85659 -0.99214,3.5717 -2.6,4.5l-13.69,7.93c-1.61107,0.92072 -3.58893,0.92072 -5.2,0l-13.73,-7.93c-1.60786,-0.9283 -2.59881,-2.64341 -2.6,-4.5v-7.62c0.00206,-0.46293 -0.2441,-0.89147 -0.64501,-1.12292c-0.40092,-0.23146 -0.89512,-0.23034 -1.29499,0.00292l-7.15,4.12c-0.80008,0.46668 -1.29147,1.32376 -1.29,2.25v8.37c0.00117,1.85398 0.9875,3.56767 2.59,4.5l24.12,13.92c1.60833,0.93096 3.59167,0.93096 5.2,0l24.12,-13.92c1.60786,-0.9283 2.59881,-2.64341 2.6,-4.5v-27.86c-0.00119,-1.85659 -0.99214,-3.5717 -2.6,-4.5l-24.12,-13.92c-1.60833,-0.93096 -3.59167,-0.93096 -5.2,0z"></path></g></g></svg>