<svg xmlns="http://www.w3.org/2000/svg"  viewBox="0 0 50 50" width="50px" height="50px"><path d="M 25 2 C 12.308594 2 2 12.308594 2 25 C 2 37.691406 12.308594 48 25 48 C 37.691406 48 48 37.691406 48 25 C 48 12.308594 37.691406 2 25 2 Z M 25 4 C 36.609375 4 46 13.390625 46 25 C 46 36.609375 36.609375 46 25 46 C 13.390625 46 4 36.609375 4 25 C 4 13.390625 13.390625 4 25 4 Z M 32.980469 15.988281 C 32.941406 15.992188 32.90625 15.996094 32.871094 16 L 21.6875 16 C 21.324219 15.996094 20.988281 16.183594 20.808594 16.496094 C 20.625 16.808594 20.625 17.191406 20.808594 17.503906 C 20.988281 17.816406 21.324219 18.003906 21.6875 18 L 30.585938 18 L 16.292969 32.292969 C 16.03125 32.542969 15.925781 32.917969 16.019531 33.265625 C 16.109375 33.617188 16.382813 33.890625 16.734375 33.980469 C 17.082031 34.074219 17.457031 33.96875 17.707031 33.707031 L 32 19.414063 L 32 28.3125 C 31.996094 28.675781 32.183594 29.011719 32.496094 29.191406 C 32.808594 29.375 33.191406 29.375 33.503906 29.191406 C 33.816406 29.011719 34.003906 28.675781 34 28.3125 L 34 17.125 C 34.039063 16.835938 33.949219 16.542969 33.753906 16.320313 C 33.558594 16.101563 33.273438 15.980469 32.980469 15.988281 Z"/></svg>